<?xml version="1.0" encoding="utf-8"?>
<!-- Generator: Adobe Illustrator 16.0.0, SVG Export Plug-In . SVG Version: 6.00 Build 0)  -->
<!DOCTYPE svg PUBLIC "-//W3C//DTD SVG 1.1//EN" "http://www.w3.org/Graphics/SVG/1.1/DTD/svg11.dtd">
<svg version="1.1" id="Camada_1" xmlns="http://www.w3.org/2000/svg" xmlns:xlink="http://www.w3.org/1999/xlink" x="0px" y="0px"
	 width="127.984px" height="127.984px" viewBox="0 0 127.984 127.984" enable-background="new 0 0 127.984 127.984"
	 xml:space="preserve">
<g>
	<path fill-rule="evenodd" clip-rule="evenodd" fill="#7E2B36" d="M0,40.995v71.991c0,6.733,8.264,14.998,14.998,14.998h70.991
		c5.62,0,9.767-2.668,11.998-6l-5.769-6.229c-2.396,1.681-3.559,3.23-7.229,3.23H17.998c-5.444,0-8.999-3.555-8.999-8.999V42.995
		c38.578,0,33.996,4.582,33.996-33.996h41.995c10.935,0,7.999,14.321,7.999,28.996c2.508,1.327,7.512,4.336,9.999,5
		c0-7.955,0.695-23.548-0.74-29.256C100.353,6.203,94.988,0,85.989,0H40.995c-5.306,0-8.729,5.225-11.751,8.246L8.751,28.749
		C5.66,31.84,0,35.615,0,40.995z"/>
	<path fill-rule="evenodd" clip-rule="evenodd" fill="#2A0E12" d="M76.99,101.987c-12.684,0-24.997-10.534-24.997-22.997v-4.999
		c0-10.747,11.25-21.998,21.998-21.998c8.548,0,14.918,0.62,21.264,7.732c9.024,10.114,8.984,24.901-0.822,34.707
		C90.68,98.186,83.978,101.987,76.99,101.987L76.99,101.987z M41.995,76.99c0,16.21,14.47,33.996,32.996,33.996
		c26.075,0,10.544-12.958,30.748,7.246c5.638,5.638,7.161,9.752,15.246,9.752c2.6,0,6.999-3.045,6.999-8.999
		c0-7.82-20.998-21.72-20.998-24.997c0-2.443,12.646-22.988-6.232-41.761C90.326,41.857,77.311,39.635,63.098,45.1
		c-7.04,2.708-14.772,10.275-17.729,17.268C43.991,65.629,41.995,72.957,41.995,76.99z"/>
	<path fill-rule="evenodd" clip-rule="evenodd" fill="#CF959D" d="M58.993,75.99c0,4.263,2.431,9.816,4.708,12.291
		c16.27,17.682,41.851-8.184,25.08-24.081c-7.52-7.127-18.049-6.982-25.654,1.925C60.824,68.824,58.993,73.021,58.993,75.99z"/>
</g>
</svg>
