<?xml version="1.0" encoding="utf-8"?>
<!-- Generator: Adobe Illustrator 16.0.0, SVG Export Plug-In . SVG Version: 6.00 Build 0)  -->
<!DOCTYPE svg PUBLIC "-//W3C//DTD SVG 1.1//EN" "http://www.w3.org/Graphics/SVG/1.1/DTD/svg11.dtd">
<svg version="1.1" id="Camada_1" xmlns="http://www.w3.org/2000/svg" xmlns:xlink="http://www.w3.org/1999/xlink" x="0px" y="0px"
	 width="127.984px" height="127.984px" viewBox="0 0 127.984 127.984" enable-background="new 0 0 127.984 127.984"
	 xml:space="preserve">
<g>
	<path fill-rule="evenodd" clip-rule="evenodd" fill="#7E2B36" d="M0,40.995v71.801c0,5.13,4.412,10.18,8.383,12.615
		c5.824,3.571,11.016,2.383,19.613,2.383c14.332,0,28.663,0,42.995,0c-0.866-3.716-1.899-4.488-2-8.998H17.998
		c-5.444,0-8.999-3.556-8.999-8.999V42.995c38.578,0,33.996,4.582,33.996-33.996h41.995c10.987,0,7.999,14.767,7.999,25.997
		c0.654,2.152,4.668,3.6,7.667,9.332c0.677,1.294,0.186,0.682,1.004,1.995c1.592,2.557,0.013,0.159,1.328,1.672
		c0-8.199,0.929-24.577-0.185-31.812C101.512,7.782,95.972,0,85.989,0H40.995c-5.31,0-8.726,5.225-11.75,8.249L8.75,28.747
		C5.659,31.838,0,35.619,0,40.995z"/>
	<path fill-rule="evenodd" clip-rule="evenodd" fill="#2A0E12" d="M75.99,51.804v23.997c-8.873,0-25.902-1.538-30.637,2.358
		c-6.521,5.368-2.267,15.64,5.641,15.64H75.99c0,21.315-3.385,33.995,10.999,33.995c10.139,0,6.999-21.095,6.999-33.995
		c19.663,0,33.996,3.535,33.996-8.999c0-12.234-18.54-8.999-33.996-8.999c0-15.614,3.68-33.996-8.999-33.996
		C80.312,41.805,75.99,46.716,75.99,51.804z"/>
</g>
</svg>
