<?xml version="1.0" encoding="utf-8"?>
<!-- Generator: Adobe Illustrator 16.0.0, SVG Export Plug-In . SVG Version: 6.00 Build 0)  -->
<!DOCTYPE svg PUBLIC "-//W3C//DTD SVG 1.1//EN" "http://www.w3.org/Graphics/SVG/1.1/DTD/svg11.dtd">
<svg version="1.1" id="Camada_1" xmlns="http://www.w3.org/2000/svg" xmlns:xlink="http://www.w3.org/1999/xlink" x="0px" y="0px"
	 width="127.984px" height="127.984px" viewBox="0 0 127.984 127.984" enable-background="new 0 0 127.984 127.984"
	 xml:space="preserve">
<g>
	<path fill-rule="evenodd" clip-rule="evenodd" fill="#7E2B36" d="M0,40.995v71.991c0,6.733,8.264,14.998,14.998,14.998h70.991
		c22.501,0,16.998-32.156,16.998-48.994c-4.171,1.113-9.953,8.848-9.999,8.999c-2.225,7.321,5.673,30.996-7.999,30.996H17.998
		c-5.444,0-8.999-3.555-8.999-8.999V42.995c38.578,0,33.996,4.582,33.996-33.996c52.847,0,49.994-4.399,49.994,17.998
		c4.252-1.135,9.988-8.956,9.999-8.999C102.185,8.356,96.341,0,85.989,0H40.995C35.346,0,24.586,12.91,18.748,18.748
		c-3.577,3.577-6.422,6.422-9.999,9.999C5.659,31.837,0,35.621,0,40.995z"/>
	<g>
		<path fill-rule="evenodd" clip-rule="evenodd" fill="#2A0E12" d="M59.993,77.99c0,7.952,5.63,12.998,13.999,12.998
			c7.323,0,23.664-19.165,29.246-24.747c8.64-8.64,24.747-21.666,24.747-30.246c0-10.88-7.369-12.998-14.998-12.998
			c-5.976,0-23.786,20.285-28.747,25.247L64.233,68.233C61.359,71.044,59.993,72.588,59.993,77.99z"/>
		<path fill-rule="evenodd" clip-rule="evenodd" fill="#2A0E12" d="M45.995,104.986c2.915-0.679,3.042-1.033,5.653-2.345
			c3.975-1.997,15.193-5.718,17.343-8.653c-6.413-1.494-10.504-5.585-11.998-11.998C54.101,84.108,46.786,101.592,45.995,104.986z"
			/>
	</g>
</g>
</svg>
