<?xml version="1.0" encoding="utf-8"?>
<!-- Generator: Adobe Illustrator 16.0.0, SVG Export Plug-In . SVG Version: 6.00 Build 0)  -->
<!DOCTYPE svg PUBLIC "-//W3C//DTD SVG 1.1//EN" "http://www.w3.org/Graphics/SVG/1.1/DTD/svg11.dtd">
<svg version="1.1" id="Camada_1" xmlns="http://www.w3.org/2000/svg" xmlns:xlink="http://www.w3.org/1999/xlink" x="0px" y="0px"
	 width="512.9px" height="512.8px" viewBox="0 0 512.9 512.8" enable-background="new 0 0 512.9 512.8" xml:space="preserve">
<path fill-rule="evenodd" clip-rule="evenodd" fill="#006633" d="M223.57,397.994c-48.982,0.001-97.965,0.004-146.948-0.001
	c-19.978-0.002-32.615-12.721-32.616-32.815c-0.003-40.985-0.009-81.971,0.003-122.956c0.005-19.338,12.88-32.211,32.225-32.213
	c98.632-0.007,197.264-0.007,295.895,0c18.955,0.001,31.856,12.986,31.862,32.063c0.012,41.319,0.013,82.637,0,123.956
	c-0.007,19.039-12.929,31.959-31.974,31.963C322.535,398.002,273.053,397.994,223.57,397.994z M191.854,257.995
	c-9.152,0-17.304,0.204-25.438-0.097c-3.387-0.126-5.013,1.139-6.526,3.957c-4.552,8.481-9.399,16.804-14.355,25.586
	c-0.992-1.469-1.781-2.512-2.439-3.632c-4.465-7.599-8.842-15.249-13.409-22.786c-0.758-1.25-2.281-2.848-3.49-2.883
	c-8.718-0.246-17.447-0.132-26.752-0.132c0.698,1.311,0.958,1.89,1.297,2.42c8.777,13.738,17.494,27.517,26.409,41.165
	c1.608,2.463,1.589,4.164-0.033,6.578c-6.774,10.08-13.348,20.295-19.972,30.477c-3.136,4.82-6.218,9.677-9.863,15.356
	c8.88,0,16.8-0.161,24.709,0.075c3.371,0.102,5.378-0.891,7.129-3.89c5.091-8.715,10.55-17.214,16.143-26.245
	c5.83,9.327,11.23,18.098,16.806,26.755c0.877,1.361,2.524,3.109,3.862,3.15c9.075,0.278,18.163,0.146,27.999,0.146
	c-1.256-1.926-2.015-3.155-2.837-4.34c-8.831-12.709-17.519-25.523-26.607-38.046c-2.583-3.559-2.505-6.039-0.198-9.625
	C173.453,287.746,182.301,273.303,191.854,257.995z M278.995,327.853c0,5.419,0.204,11.573-0.083,17.706
	c-0.154,3.293,1.234,4.511,4.072,5.66c10.646,4.312,21.756,5.255,32.839,3.6c6.379-0.953,13.013-3.166,18.508-6.501
	c15.697-9.526,17.04-35.999,0.298-45.964c-5.121-3.049-10.59-5.512-15.873-8.293c-3.522-1.855-7.272-3.447-10.374-5.859
	c-1.487-1.156-2.534-4.068-2.246-5.95c0.245-1.604,2.466-3.577,4.209-4.122c2.596-0.812,5.659-1.102,8.312-0.568
	c6.626,1.332,13.133,3.255,20.186,5.068c2.386-5.975,4.946-12.385,7.704-19.291c-17.515-7.189-34.771-10.237-52.414-2.307
	c-7.738,3.479-12.576,9.768-13.988,18.248c-2.262,13.583,2.459,23.612,14.371,30.74c3.121,1.869,6.479,3.346,9.737,4.984
	c4.152,2.089,8.617,3.736,12.345,6.412c1.9,1.365,3.826,4.921,3.314,6.84c-0.602,2.258-3.567,4.406-6.004,5.496
	c-2.107,0.942-5.005,0.818-7.383,0.33C297.498,332.232,288.539,330.043,278.995,327.853z M205.233,353.645
	c21.088,0,41.805,0,62.527,0c0-6.965,0-13.565,0-20.712c-12.292,0-24.35,0-36.941,0c0-25.265,0-49.984,0-74.688
	c-8.817,0-17.083,0-25.586,0C205.233,290.09,205.233,321.688,205.233,353.645z"/>
<path fill-rule="evenodd" clip-rule="evenodd" fill="#009640" d="M85.005,414.109c5.246,0,9.728,0,14.989,0c0,1.825,0,3.572,0,5.32
	c0,17.666-0.012,35.331,0.004,52.996c0.01,11.171,6.455,17.574,17.715,17.575c105.992,0.008,211.985,0.007,317.977,0.001
	c10.189-0.001,16.287-5.85,16.29-15.98c0.036-115.325,0.027-230.65,0.012-345.975c-0.001-5.419-2.759-8.043-8.281-8.047
	c-18.832-0.012-37.664,0.018-56.496-0.012c-18.281-0.028-31.188-12.872-31.206-31.034c-0.02-18.832,0.005-37.664-0.01-56.496
	c-0.005-5.567-2.88-8.455-8.485-8.455c-76.995-0.012-153.989-0.021-230.983,0.009C105.91,24.016,100,30.136,99.998,40.881
	c-0.007,49.163-0.003,98.326-0.003,147.489c0,1.981,0,3.962,0,6.28c-4.997,0-9.713,0-14.77,0c-0.074-1.649-0.21-3.266-0.21-4.882
	c-0.011-49.83-0.017-99.66-0.005-149.489c0.004-18.521,12.797-31.26,31.466-31.265c78.995-0.02,157.989-0.04,236.983,0.13
	c2.593,0.005,5.816,1.42,7.679,3.259c34.752,34.299,69.37,68.735,103.882,103.278c1.631,1.633,2.852,4.514,2.854,6.816
	c0.137,117.16,0.134,234.319,0.105,351.479c-0.004,17.681-13.343,31.006-30.95,31.009c-106.826,0.018-213.651,0.018-320.477,0.001
	c-18.188-0.004-31.515-13.362-31.541-31.537c-0.026-18.166-0.006-36.331-0.006-54.496C85.005,417.484,85.005,416.018,85.005,414.109
	z M372.179,45.772c-0.395,0.148-0.789,0.297-1.184,0.445c0,14.1-0.022,28.2,0.007,42.299c0.021,10.312,6.115,16.443,16.408,16.478
	c13.156,0.043,26.312,0.021,39.467-0.006c1.181-0.002,2.36-0.242,2.979-0.31C410.607,85.02,391.393,65.396,372.179,45.772z"/>
<path fill-rule="evenodd" clip-rule="evenodd" fill="#FFFFFF" d="M191.854,257.995c-9.552,15.308-18.4,29.751-27.565,43.99
	c-2.308,3.586-2.385,6.066,0.198,9.625c9.089,12.522,17.777,25.337,26.607,38.046c0.823,1.185,1.581,2.414,2.837,4.34
	c-9.836,0-18.924,0.133-27.999-0.146c-1.338-0.041-2.985-1.789-3.862-3.15c-5.576-8.657-10.976-17.428-16.806-26.755
	c-5.592,9.031-11.052,17.53-16.143,26.245c-1.751,2.999-3.758,3.991-7.129,3.89c-7.909-0.236-15.829-0.075-24.709-0.075
	c3.645-5.68,6.727-10.536,9.863-15.356c6.624-10.182,13.198-20.396,19.972-30.477c1.622-2.414,1.641-4.115,0.033-6.578
	c-8.915-13.648-17.632-27.427-26.409-41.165c-0.338-0.53-0.599-1.109-1.297-2.42c9.306,0,18.034-0.114,26.752,0.132
	c1.209,0.035,2.732,1.633,3.49,2.883c4.566,7.537,8.943,15.188,13.409,22.786c0.658,1.12,1.447,2.163,2.439,3.632
	c4.956-8.782,9.803-17.104,14.355-25.586c1.513-2.818,3.139-4.083,6.526-3.957C174.549,258.199,182.702,257.995,191.854,257.995z"/>
<path fill-rule="evenodd" clip-rule="evenodd" fill="#FFFFFF" d="M278.995,327.853c9.544,2.19,18.503,4.38,27.53,6.229
	c2.378,0.488,5.275,0.612,7.383-0.33c2.437-1.09,5.402-3.238,6.004-5.496c0.512-1.919-1.414-5.475-3.314-6.84
	c-3.728-2.676-8.192-4.323-12.345-6.412c-3.259-1.639-6.616-3.115-9.737-4.984c-11.912-7.128-16.633-17.157-14.371-30.74
	c1.412-8.48,6.25-14.769,13.988-18.248c17.643-7.931,34.899-4.882,52.414,2.307c-2.758,6.906-5.318,13.316-7.704,19.291
	c-7.053-1.813-13.56-3.736-20.186-5.068c-2.653-0.533-5.717-0.244-8.312,0.568c-1.743,0.545-3.964,2.519-4.209,4.122
	c-0.288,1.882,0.759,4.794,2.246,5.95c3.102,2.412,6.852,4.004,10.374,5.859c5.283,2.781,10.752,5.244,15.873,8.293
	c16.742,9.965,15.399,36.438-0.298,45.964c-5.495,3.335-12.129,5.548-18.508,6.501c-11.083,1.655-22.192,0.713-32.839-3.6
	c-2.838-1.149-4.227-2.367-4.072-5.66C279.199,339.426,278.995,333.271,278.995,327.853z"/>
<path fill-rule="evenodd" clip-rule="evenodd" fill="#FFFFFF" d="M205.233,353.645c0-31.957,0-63.555,0-95.4
	c8.502,0,16.769,0,25.586,0c0,24.704,0,49.424,0,74.688c12.591,0,24.649,0,36.941,0c0,7.146,0,13.747,0,20.712
	C247.038,353.645,226.322,353.645,205.233,353.645z"/>
<path fill-rule="evenodd" clip-rule="evenodd" fill="#FFFFFF" d="M372.179,45.772c19.214,19.624,38.429,39.248,57.678,58.906
	c-0.619,0.068-1.799,0.308-2.979,0.31c-13.155,0.026-26.311,0.049-39.467,0.006c-10.293-0.034-16.387-6.166-16.408-16.478
	c-0.029-14.1-0.007-28.2-0.007-42.299C371.39,46.069,371.784,45.92,372.179,45.772z"/>
</svg>
